<svg width="34" height="30" viewBox="0 0 34 30" fill="none" xmlns="http://www.w3.org/2000/svg">
<path d="M29.6867 4.30798C28.9537 3.57628 28.0833 2.99585 27.1254 2.59984C26.1675 2.20383 25.1407 2 24.1038 2C23.0669 2 22.0402 2.20383 21.0822 2.59984C20.1243 2.99585 19.254 3.57628 18.5209 4.30798L16.9996 5.82579L15.4783 4.30798C13.9976 2.83069 11.9894 2.00077 9.89541 2.00077C7.80142 2.00077 5.79319 2.83069 4.31251 4.30798C2.83184 5.78526 2 7.78888 2 9.87808C2 11.9673 2.83184 13.9709 4.31251 15.4482L5.83382 16.966L16.9996 28.1062L28.1654 16.966L29.6867 15.4482C30.4201 14.7168 31.0019 13.8485 31.3988 12.8927C31.7957 11.937 32 10.9126 32 9.87808C32 8.84355 31.7957 7.81915 31.3988 6.86341C31.0019 5.90768 30.4201 5.03933 29.6867 4.30798Z" stroke="#FFF2B7" stroke-width="3.5" stroke-linecap="round" stroke-linejoin="round"/>
</svg>
