<svg width="23" height="33" viewBox="0 0 23 33" fill="none" xmlns="http://www.w3.org/2000/svg">
<path d="M22.3462 8.08008L21.3354 11.5518H0.944824L1.95557 8.08008H22.3462ZM13.2056 32.25L1.58203 18.6709L1.56006 15.9463H6.92139C8.47412 15.9463 9.75586 15.6899 10.7666 15.1772C11.792 14.6499 12.561 13.9395 13.0737 13.0459C13.5864 12.1523 13.8428 11.1489 13.8428 10.0356C13.8428 8.79053 13.6011 7.69922 13.1177 6.76172C12.6343 5.80957 11.8726 5.06982 10.8325 4.54248C9.80713 4.00049 8.45947 3.72949 6.78955 3.72949H0.98877L2.02148 0.257812H6.78955C9.33838 0.257812 11.4404 0.645996 13.0957 1.42236C14.7656 2.18408 16.0107 3.29736 16.8311 4.76221C17.6514 6.22705 18.0615 7.99951 18.0615 10.0796C18.0615 11.8667 17.7173 13.4707 17.0288 14.8916C16.355 16.2979 15.2344 17.4038 13.667 18.2095C12.1143 19.0151 10.0195 19.418 7.38281 19.418L18.1934 31.9863V32.25H13.2056ZM22.3462 0.257812L21.3354 3.72949H4.8999L5.91064 0.257812H22.3462Z" fill="#402000"/>
</svg>
