<svg width="33" height="24" viewBox="0 0 33 24" fill="none" xmlns="http://www.w3.org/2000/svg">
<rect width="33" height="24" rx="2.4" fill="white"/>
<path d="M11.9554 10.166H11.9448V10.167C11.9484 10.1667 11.9514 10.1664 11.9554 10.166Z" fill="#168F8C"/>
<path d="M12.0188 10.0735V15.9849H13.4016V11.5546C13.4016 11.2237 13.2259 10.2241 12.0188 10.0735Z" fill="#0CA49D"/>
<path d="M4.66839 14.9564C4.84425 14.9564 4.988 14.934 5.09968 14.8891C5.21123 14.8443 5.29854 14.7863 5.36166 14.715C5.42461 14.6438 5.46789 14.5633 5.49156 14.4736C5.51518 14.384 5.52697 14.293 5.52697 14.2006C5.52697 14.0951 5.5132 14.0002 5.48557 13.9157C5.45813 13.8313 5.4108 13.7601 5.34381 13.702C5.27695 13.644 5.18827 13.5991 5.07799 13.5675C4.96772 13.5358 4.82854 13.52 4.66047 13.52H3.73112V14.9564H4.66839ZM3.73112 11.2011V12.6257H4.42426C4.57122 12.6257 4.70389 12.6152 4.82203 12.594C4.9401 12.5729 5.0406 12.536 5.12326 12.4832C5.20591 12.4305 5.26903 12.358 5.31231 12.2656C5.35559 12.1733 5.37732 12.0572 5.37732 11.9174C5.37732 11.7802 5.36021 11.6661 5.32612 11.5751C5.29194 11.4841 5.23942 11.4109 5.16856 11.3554C5.0977 11.3 5.0077 11.2605 4.89884 11.2367C4.78988 11.213 4.66047 11.2011 4.51092 11.2011H3.73112ZM4.51092 10.2C4.90733 10.2 5.24475 10.237 5.52305 10.3108C5.80127 10.3847 6.02846 10.4888 6.20441 10.6234C6.38022 10.7579 6.50818 10.9215 6.58837 11.114C6.66838 11.3067 6.70845 11.5216 6.70845 11.7591C6.70845 11.8883 6.69006 12.013 6.65342 12.133C6.6166 12.2531 6.55876 12.3652 6.48003 12.4693C6.40125 12.5736 6.30016 12.6692 6.17678 12.7563C6.05331 12.8433 5.90508 12.9185 5.73181 12.9818C6.10979 13.0741 6.38946 13.2231 6.57059 13.429C6.75173 13.6347 6.84243 13.9012 6.84243 14.2283C6.84243 14.4736 6.79515 14.7019 6.70058 14.9129C6.60609 15.124 6.46749 15.308 6.28503 15.4649C6.10262 15.6219 5.87745 15.7445 5.60962 15.8329C5.34191 15.9213 5.03599 15.9655 4.6921 15.9655H2.39999V10.2H4.51092Z" fill="#0CA49D"/>
<path d="M10.8437 11.3711C10.8043 11.4345 10.763 11.4819 10.7196 11.5136C10.6763 11.5452 10.6206 11.5611 10.5523 11.5611C10.4919 11.5611 10.4269 11.5419 10.3573 11.5037C10.2878 11.4654 10.209 11.4226 10.1211 11.3751C10.0331 11.3276 9.93265 11.2847 9.81978 11.2464C9.70696 11.2082 9.57825 11.1891 9.43375 11.1891C9.18435 11.1891 8.99859 11.2425 8.87653 11.3494C8.75447 11.4562 8.69337 11.6006 8.69337 11.7827C8.69337 11.8988 8.73019 11.995 8.80364 12.0715C8.8771 12.148 8.9737 12.214 9.09321 12.2694C9.21263 12.3248 9.34921 12.3756 9.50277 12.4217C9.65633 12.4679 9.81318 12.5194 9.97334 12.576C10.1335 12.6328 10.2905 12.6994 10.444 12.7759C10.5976 12.8524 10.7342 12.95 10.8536 13.0687C10.9731 13.1874 11.0695 13.3318 11.143 13.502C11.2165 13.6721 11.2533 13.8773 11.2533 14.1173C11.2533 14.3839 11.2074 14.6331 11.1155 14.8652C11.0236 15.0974 10.8903 15.2999 10.7157 15.4726C10.5411 15.6455 10.3258 15.7813 10.0699 15.8802C9.81389 15.9792 9.52305 16.0286 9.19755 16.0286C9.019 16.0286 8.83712 16.0101 8.65211 15.9733C8.46697 15.9363 8.28781 15.8842 8.11455 15.8169C7.9412 15.7496 7.7784 15.6699 7.62616 15.5775C7.47375 15.4852 7.34122 15.3823 7.22835 15.2688L7.62216 14.6436C7.65374 14.5987 7.695 14.5612 7.7462 14.5309C7.7974 14.5005 7.85318 14.4854 7.9137 14.4854C7.99235 14.4854 8.07171 14.5104 8.15194 14.5605C8.23199 14.6107 8.32256 14.666 8.42369 14.7268C8.52472 14.7875 8.64089 14.8428 8.77219 14.893C8.90341 14.9431 9.05837 14.9681 9.23696 14.9681C9.47844 14.9681 9.66622 14.9147 9.80012 14.8079C9.93397 14.701 10.0009 14.5315 10.0009 14.2994C10.0009 14.1648 9.9641 14.0554 9.89069 13.9709C9.81719 13.8865 9.72059 13.8166 9.60125 13.7611C9.48161 13.7058 9.34578 13.657 9.19354 13.6148C9.0413 13.5727 8.88502 13.5258 8.72495 13.4743C8.56471 13.4228 8.40851 13.3596 8.25627 13.2844C8.1039 13.2092 7.96803 13.1103 7.84874 12.9876C7.72914 12.8649 7.63263 12.7119 7.55917 12.5286C7.48571 12.3452 7.4489 12.119 7.4489 11.8499C7.4489 11.6337 7.49218 11.4226 7.57888 11.2167C7.66558 11.011 7.79283 10.8277 7.96086 10.6668C8.12893 10.5059 8.3351 10.3772 8.57918 10.2809C8.82335 10.1846 9.10297 10.1365 9.41809 10.1365C9.59395 10.1365 9.76528 10.1504 9.93208 10.1781C10.0987 10.2057 10.257 10.2467 10.4066 10.3007C10.5563 10.3548 10.696 10.4195 10.826 10.4946C10.956 10.5698 11.0721 10.6549 11.1745 10.7499L10.8437 11.3711Z" fill="#0CA49D"/>
<path d="M13.5532 7.94287C13.5502 7.89454 13.5447 7.84696 13.5374 7.80005C13.8468 8.12093 14.2887 8.30903 14.7672 8.27865C14.9961 8.26406 15.2102 8.20074 15.4007 8.09979C15.2527 8.35926 15.1759 8.6636 15.1962 8.98435C15.2212 9.38142 15.3902 9.73462 15.6486 9.99665C15.5164 9.9699 15.3788 9.9596 15.2378 9.96862C14.6779 10.0042 14.2054 10.33 13.9552 10.7907C13.8563 10.1096 13.3306 9.58013 12.6732 9.46362C13.2287 9.19084 13.5946 8.6013 13.5532 7.94287Z" fill="#F9AD3C"/>
<path d="M15.9259 13.6263C15.9892 13.6263 16.0439 13.619 16.0897 13.6045C16.1355 13.5899 16.1729 13.5695 16.202 13.5434C16.2317 13.5165 16.2535 13.4851 16.2672 13.449C16.281 13.4122 16.2879 13.3719 16.2879 13.3281C16.2879 13.2429 16.2577 13.1757 16.1973 13.1266C16.137 13.0767 16.0466 13.0517 15.9259 13.0517H15.5707V13.6263H15.9259ZM15.5707 12.3297V12.8928H15.864C15.9266 12.8928 15.9808 12.8859 16.0267 12.8721C16.0733 12.8583 16.1114 12.8391 16.1412 12.8145C16.1718 12.7899 16.1943 12.7604 16.2088 12.7259C16.2233 12.6905 16.2306 12.6522 16.2306 12.6107C16.2306 12.5132 16.2016 12.4422 16.1435 12.3977C16.0855 12.3524 15.9954 12.3297 15.8732 12.3297H15.5707ZM15.8732 12.1536C15.974 12.1536 16.0607 12.1635 16.1332 12.1835C16.2065 12.2034 16.2665 12.2319 16.3131 12.2687C16.3604 12.3055 16.3951 12.3509 16.4173 12.4046C16.4394 12.4576 16.4505 12.5174 16.4505 12.5842C16.4505 12.6249 16.444 12.664 16.431 12.7017C16.4188 12.7385 16.4001 12.7731 16.3749 12.8053C16.3497 12.8376 16.3176 12.8667 16.2787 12.8928C16.2405 12.9182 16.1954 12.9389 16.1435 12.955C16.2642 12.978 16.3547 13.0214 16.415 13.0851C16.4761 13.1481 16.5067 13.231 16.5067 13.3338C16.5067 13.4037 16.4937 13.4674 16.4677 13.525C16.4425 13.5826 16.4051 13.6321 16.3554 13.6736C16.3066 13.715 16.2463 13.7472 16.1745 13.7703C16.1027 13.7925 16.021 13.8036 15.9293 13.8036H15.3497V12.1536H15.8732Z" fill="#0CA49D"/>
<path d="M17.6801 13.1911L17.4224 12.5197C17.4147 12.4998 17.4067 12.4767 17.3983 12.4507C17.3899 12.4238 17.3819 12.3954 17.3743 12.3655C17.3582 12.4276 17.3418 12.4794 17.325 12.5209L17.0672 13.1911H17.6801ZM18.1429 13.8036H17.9711C17.9512 13.8036 17.9352 13.7987 17.923 13.7887C17.9107 13.7787 17.9016 13.7661 17.8955 13.7507L17.742 13.3523H17.0054L16.8519 13.7507C16.8473 13.7645 16.8385 13.7768 16.8255 13.7876C16.8126 13.7983 16.7965 13.8036 16.7774 13.8036H16.6056L17.262 12.1536H17.4865L18.1429 13.8036Z" fill="#0CA49D"/>
<path d="M19.6889 12.1536V13.8036H19.5777C19.5601 13.8036 19.5453 13.8006 19.5331 13.7944C19.5216 13.7883 19.5101 13.778 19.4987 13.7634L18.5491 12.5197C18.5506 12.5389 18.5517 12.5578 18.5525 12.5761C18.5532 12.5946 18.5536 12.6119 18.5536 12.628V13.8036H18.3589V12.1536H18.4735C18.4834 12.1536 18.4918 12.1543 18.4987 12.1559C18.5055 12.1566 18.5116 12.1586 18.517 12.1616C18.5223 12.1639 18.5277 12.1678 18.533 12.1731C18.5384 12.1778 18.5441 12.1839 18.5502 12.1915L19.4998 13.434C19.4983 13.4141 19.4968 13.3949 19.4953 13.3765C19.4945 13.3573 19.4941 13.3392 19.4941 13.3223V12.1536H19.6889Z" fill="#0CA49D"/>
<path d="M20.3297 12.8767H20.4133C20.4423 12.8767 20.4656 12.8732 20.4831 12.8663C20.5007 12.8586 20.5167 12.846 20.5312 12.8284L21.0776 12.2065C21.093 12.1866 21.109 12.1728 21.1258 12.1651C21.1426 12.1574 21.1632 12.1536 21.1877 12.1536H21.3755L20.75 12.864C20.7348 12.8825 20.7199 12.8978 20.7054 12.9101C20.6916 12.9216 20.6768 12.9312 20.6607 12.9389C20.6813 12.9458 20.7 12.9561 20.7168 12.97C20.7336 12.983 20.75 13.0003 20.7661 13.0218L21.419 13.8036H21.2266C21.2121 13.8036 21.1995 13.8029 21.1888 13.8013C21.1789 13.799 21.1701 13.796 21.1625 13.7922C21.1548 13.7876 21.1479 13.7826 21.1418 13.7772C21.1365 13.7711 21.1311 13.7641 21.1258 13.7565L20.5599 13.1013C20.5446 13.0821 20.5282 13.0686 20.5106 13.0609C20.4931 13.0525 20.4663 13.0483 20.4304 13.0483H20.3297V13.8036H20.1085V12.1536H20.3297V12.8767Z" fill="#0CA49D"/>
<path d="M23.0513 12.4114C23.0444 12.4229 23.0367 12.4317 23.0283 12.4379C23.0207 12.4432 23.0112 12.4459 22.9997 12.4459C22.9867 12.4459 22.9715 12.4394 22.9539 12.4264C22.9363 12.4133 22.9142 12.3991 22.8875 12.3837C22.8615 12.3676 22.8298 12.353 22.7924 12.34C22.7557 12.3269 22.711 12.3204 22.6584 12.3204C22.6087 12.3204 22.5648 12.3273 22.5266 12.3411C22.4892 12.3542 22.4575 12.3722 22.4315 12.3953C22.4063 12.4183 22.3872 12.4455 22.3743 12.477C22.3613 12.5077 22.3548 12.5411 22.3548 12.5772C22.3548 12.6233 22.3659 12.6616 22.388 12.6924C22.4109 12.7223 22.4407 12.748 22.4774 12.7695C22.5148 12.791 22.5568 12.8098 22.6033 12.8259C22.6507 12.8413 22.6988 12.8574 22.7477 12.8743C22.7973 12.8912 22.8455 12.9104 22.892 12.9318C22.9394 12.9526 22.9814 12.9791 23.0181 13.0113C23.0555 13.0435 23.0853 13.0831 23.1074 13.1299C23.1303 13.1768 23.1417 13.2343 23.1417 13.3026C23.1417 13.3748 23.1296 13.4427 23.1051 13.5064C23.0807 13.5694 23.0448 13.6243 22.9974 13.6711C22.9508 13.718 22.8932 13.7548 22.8245 13.7817C22.7565 13.8085 22.679 13.822 22.5919 13.822C22.485 13.822 22.388 13.8028 22.3009 13.7644C22.2139 13.7253 22.1394 13.6727 22.0776 13.6066L22.1417 13.5007C22.1478 13.4922 22.1551 13.4853 22.1635 13.48C22.1726 13.4739 22.1826 13.4708 22.1933 13.4708C22.2032 13.4708 22.2143 13.475 22.2265 13.4834C22.2395 13.4911 22.254 13.5011 22.27 13.5134C22.2861 13.5257 22.3044 13.5391 22.325 13.5537C22.3456 13.5683 22.3689 13.5817 22.3949 13.594C22.4216 13.6062 22.4518 13.6166 22.4854 13.6251C22.519 13.6327 22.5568 13.6366 22.5988 13.6366C22.6515 13.6366 22.6984 13.6293 22.7397 13.6147C22.7809 13.6001 22.8157 13.5798 22.8439 13.5537C22.8729 13.5268 22.8951 13.4949 22.9104 13.4581C22.9256 13.4212 22.9333 13.3802 22.9333 13.3349C22.9333 13.285 22.9218 13.2443 22.8989 13.2128C22.8768 13.1806 22.8474 13.1537 22.8107 13.1322C22.7741 13.1107 22.7321 13.0927 22.6847 13.0781C22.6373 13.0628 22.5892 13.0474 22.5404 13.032C22.4915 13.0159 22.4434 12.9975 22.396 12.9768C22.3487 12.956 22.3067 12.9292 22.27 12.8962C22.2334 12.8632 22.2036 12.8221 22.1807 12.773C22.1585 12.723 22.1475 12.6616 22.1475 12.5887C22.1475 12.5304 22.1585 12.4739 22.1807 12.4195C22.2036 12.3649 22.2364 12.3166 22.2792 12.2743C22.3227 12.2321 22.3758 12.1983 22.4384 12.173C22.5018 12.1477 22.5744 12.135 22.656 12.135C22.7477 12.135 22.8309 12.1496 22.9058 12.1788C22.9814 12.2079 23.0478 12.2502 23.1051 12.3054L23.0513 12.4114Z" fill="#0CA49D"/>
<path d="M24.0382 13.1461V13.8036H23.816V13.1461L23.2146 12.1536H23.4094C23.4292 12.1536 23.4449 12.1586 23.4563 12.1685C23.4678 12.1778 23.4777 12.19 23.4861 12.2054L23.8618 12.8468C23.8756 12.8736 23.8882 12.899 23.8996 12.9228C23.9111 12.9458 23.921 12.9692 23.9294 12.993C23.9378 12.9692 23.9474 12.9458 23.958 12.9228C23.9688 12.899 23.9806 12.8736 23.9936 12.8468L24.3682 12.2054C24.375 12.1923 24.3846 12.1804 24.3968 12.1697C24.409 12.1589 24.4247 12.1536 24.4437 12.1536H24.6397L24.0382 13.1461Z" fill="#0CA49D"/>
<path d="M25.5624 13.1911L25.3046 12.5197C25.297 12.4998 25.289 12.4767 25.2806 12.4507C25.2722 12.4238 25.2642 12.3954 25.2566 12.3655C25.2405 12.4276 25.2241 12.4794 25.2073 12.5209L24.9495 13.1911H25.5624ZM26.0252 13.8036H25.8534C25.8335 13.8036 25.8175 13.7987 25.8052 13.7887C25.793 13.7787 25.7839 13.7661 25.7778 13.7507L25.6242 13.3523H24.8877L24.7342 13.7507C24.7296 13.7645 24.7208 13.7768 24.7078 13.7876C24.6948 13.7983 24.6788 13.8036 24.6597 13.8036H24.4879L25.1443 12.1536H25.3688L26.0252 13.8036Z" fill="#0CA49D"/>
<path d="M26.6959 12.9527C26.76 12.9527 26.8165 12.945 26.8654 12.9297C26.915 12.9136 26.9563 12.8913 26.9891 12.8629C27.0227 12.8337 27.0479 12.7992 27.0647 12.7592C27.0815 12.7193 27.0899 12.6752 27.0899 12.6268C27.0899 12.5286 27.0578 12.4545 26.9937 12.4046C26.9295 12.3547 26.8333 12.3297 26.705 12.3297H26.4622V12.9527H26.6959ZM27.4542 13.8036H27.2571C27.2167 13.8036 27.1869 13.7879 27.1678 13.7565L26.7417 13.1669C26.7287 13.1484 26.7146 13.1354 26.6993 13.1277C26.6848 13.1193 26.6619 13.1151 26.6305 13.1151H26.4622V13.8036H26.2411V12.1536H26.705C26.8089 12.1536 26.8986 12.1643 26.9742 12.1858C27.0498 12.2065 27.1121 12.2368 27.1609 12.2768C27.2106 12.3167 27.2472 12.3651 27.2709 12.4219C27.2946 12.4779 27.3064 12.5409 27.3064 12.6107C27.3064 12.669 27.2973 12.7236 27.2789 12.7742C27.2606 12.8249 27.2339 12.8705 27.1987 12.9113C27.1644 12.9511 27.122 12.9853 27.0716 13.0137C27.0219 13.0421 26.9654 13.0636 26.902 13.0782C26.9303 13.0943 26.9547 13.1178 26.9754 13.1484L27.4542 13.8036Z" fill="#0CA49D"/>
<path d="M27.8997 13.8036H27.6775V12.1536H27.8997V13.8036Z" fill="#0CA49D"/>
<path d="M29.1913 13.1911L28.9335 12.5197C28.9259 12.4998 28.9179 12.4767 28.9095 12.4507C28.9011 12.4238 28.8931 12.3954 28.8854 12.3655C28.8694 12.4276 28.853 12.4794 28.8362 12.5209L28.5784 13.1911H29.1913ZM29.6541 13.8036H29.4823C29.4624 13.8036 29.4464 13.7987 29.4341 13.7887C29.4219 13.7787 29.4128 13.7661 29.4066 13.7507L29.2531 13.3523H28.5166L28.3631 13.7507C28.3585 13.7645 28.3497 13.7768 28.3367 13.7876C28.3237 13.7983 28.3077 13.8036 28.2886 13.8036H28.1168L28.7731 12.1536H28.9977L29.6541 13.8036Z" fill="#0CA49D"/>
<path d="M31.2 12.1536V13.8036H30.9778V13.0529H30.0923V13.8036H29.8701V12.1536H30.0923V12.8894H30.9778V12.1536H31.2Z" fill="#0CA49D"/>
<path d="M15.5719 15.9787H15.3497V14.3286H15.5719V15.9787Z" fill="#0CA49D"/>
<path d="M17.3216 14.3286V15.9787H17.2105C17.193 15.9787 17.1781 15.9757 17.1659 15.9695C17.1544 15.9634 17.143 15.953 17.1315 15.9385L16.1819 14.6948C16.1834 14.714 16.1845 14.7328 16.1853 14.7512C16.1861 14.7697 16.1864 14.7869 16.1864 14.8031V15.9787H15.9917V14.3286H16.1062C16.1162 14.3286 16.1246 14.3294 16.1314 14.331C16.1383 14.3317 16.1444 14.3336 16.1498 14.3367C16.1551 14.339 16.1605 14.3429 16.1658 14.3482C16.1712 14.3528 16.1769 14.3589 16.183 14.3666L17.1326 15.6091C17.1311 15.5891 17.1296 15.57 17.1281 15.5515C17.1273 15.5323 17.1269 15.5143 17.1269 15.4974V14.3286H17.3216Z" fill="#0CA49D"/>
<path d="M19.1641 15.1543C19.1641 15.2779 19.1446 15.3903 19.1057 15.4916C19.0667 15.593 19.0117 15.6797 18.9407 15.7519C18.8697 15.8241 18.7842 15.8801 18.6841 15.92C18.5849 15.9592 18.4749 15.9787 18.3542 15.9787H17.7414V14.3286H18.3542C18.4749 14.3286 18.5849 14.3486 18.6841 14.3885C18.7842 14.4277 18.8697 14.4837 18.9407 14.5566C19.0117 14.6288 19.0667 14.7156 19.1057 14.8169C19.1446 14.9182 19.1641 15.0307 19.1641 15.1543ZM18.9361 15.1543C18.9361 15.0529 18.9224 14.9623 18.8949 14.8825C18.8674 14.8027 18.8285 14.7351 18.778 14.6798C18.7277 14.6246 18.6666 14.5823 18.5948 14.5532C18.523 14.524 18.4428 14.5094 18.3542 14.5094H17.9636V15.7979H18.3542C18.4428 15.7979 18.523 15.7834 18.5948 15.7542C18.6666 15.725 18.7277 15.6832 18.778 15.6287C18.8285 15.5734 18.8674 15.5058 18.8949 15.426C18.9224 15.3462 18.9361 15.2556 18.9361 15.1543Z" fill="#0CA49D"/>
<path d="M21.001 15.1544C21.001 15.2779 20.9815 15.3915 20.9425 15.4952C20.9036 15.5981 20.8486 15.6867 20.7776 15.7612C20.7066 15.8357 20.621 15.8936 20.521 15.9351C20.4217 15.9758 20.3117 15.9961 20.1911 15.9961C20.0704 15.9961 19.9604 15.9758 19.8611 15.9351C19.7619 15.8936 19.6767 15.8357 19.6057 15.7612C19.5347 15.6867 19.4797 15.5981 19.4408 15.4952C19.4018 15.3915 19.3823 15.2779 19.3823 15.1544C19.3823 15.0308 19.4018 14.9175 19.4408 14.8146C19.4797 14.711 19.5347 14.622 19.6057 14.5475C19.6767 14.4723 19.7619 14.4139 19.8611 14.3725C19.9604 14.331 20.0704 14.3103 20.1911 14.3103C20.3117 14.3103 20.4217 14.331 20.521 14.3725C20.621 14.4139 20.7066 14.4723 20.7776 14.5475C20.8486 14.622 20.9036 14.711 20.9425 14.8146C20.9815 14.9175 21.001 15.0308 21.001 15.1544ZM20.773 15.1544C20.773 15.053 20.7593 14.9621 20.7318 14.8815C20.7043 14.8008 20.6653 14.7329 20.6149 14.6776C20.5645 14.6216 20.5034 14.5786 20.4316 14.5487C20.3598 14.5187 20.2796 14.5038 20.1911 14.5038C20.1032 14.5038 20.0234 14.5187 19.9517 14.5487C19.8799 14.5786 19.8184 14.6216 19.7672 14.6776C19.7168 14.7329 19.6778 14.8008 19.6503 14.8815C19.6229 14.9621 19.6091 15.053 19.6091 15.1544C19.6091 15.2557 19.6229 15.3467 19.6503 15.4273C19.6778 15.5071 19.7168 15.575 19.7672 15.6311C19.8184 15.6863 19.8799 15.729 19.9517 15.7589C20.0234 15.7881 20.1032 15.8027 20.1911 15.8027C20.2796 15.8027 20.3598 15.7881 20.4316 15.7589C20.5034 15.729 20.5645 15.6863 20.6149 15.6311C20.6653 15.575 20.7043 15.5071 20.7318 15.4273C20.7593 15.3467 20.773 15.2557 20.773 15.1544Z" fill="#0CA49D"/>
<path d="M22.6488 14.3286V15.9787H22.5377C22.5202 15.9787 22.5053 15.9757 22.4931 15.9695C22.4816 15.9634 22.4702 15.953 22.4587 15.9385L21.5091 14.6948C21.5106 14.714 21.5117 14.7328 21.5125 14.7512C21.5133 14.7697 21.5136 14.7869 21.5136 14.8031V15.9787H21.3189V14.3286H21.4335C21.4434 14.3286 21.4518 14.3294 21.4587 14.331C21.4655 14.3317 21.4716 14.3336 21.477 14.3367C21.4823 14.339 21.4877 14.3429 21.4931 14.3482C21.4984 14.3528 21.5041 14.3589 21.5102 14.3666L22.4598 15.6091C22.4583 15.5891 22.4568 15.57 22.4553 15.5515C22.4545 15.5323 22.4541 15.5143 22.4541 15.4974V14.3286H22.6488Z" fill="#0CA49D"/>
<path d="M24.0811 15.7968L24.08 15.9787H23.0685V14.3286H24.08V14.5106H23.2907V15.0587H23.9299V15.2337H23.2907V15.7968H24.0811Z" fill="#0CA49D"/>
<path d="M25.2304 14.5867C25.2236 14.5982 25.2159 14.607 25.2075 14.6131C25.1999 14.6185 25.1904 14.6212 25.1789 14.6212C25.1659 14.6212 25.1506 14.6147 25.133 14.6016C25.1155 14.5886 25.0934 14.5744 25.0666 14.559C25.0407 14.5429 25.0089 14.5283 24.9715 14.5152C24.9349 14.5022 24.8902 14.4957 24.8375 14.4957C24.7879 14.4957 24.744 14.5026 24.7058 14.5164C24.6684 14.5294 24.6366 14.5475 24.6107 14.5705C24.5855 14.5936 24.5664 14.6208 24.5534 14.6523C24.5404 14.683 24.5339 14.7164 24.5339 14.7525C24.5339 14.7985 24.545 14.8369 24.5671 14.8676C24.5901 14.8975 24.6198 14.9233 24.6565 14.9448C24.6939 14.9663 24.7359 14.9851 24.7825 15.0012C24.8299 15.0165 24.878 15.0327 24.9269 15.0496C24.9765 15.0665 25.0246 15.0856 25.0712 15.1071C25.1186 15.1279 25.1605 15.1544 25.1972 15.1866C25.2346 15.2188 25.2644 15.2584 25.2866 15.3052C25.3095 15.352 25.3209 15.4096 25.3209 15.4779C25.3209 15.5501 25.3087 15.618 25.2843 15.6817C25.2598 15.7447 25.2239 15.7996 25.1766 15.8464C25.13 15.8932 25.0723 15.9301 25.0036 15.9569C24.9356 15.9838 24.8581 15.9973 24.7711 15.9973C24.6641 15.9973 24.5671 15.9781 24.4801 15.9397C24.393 15.9005 24.3186 15.8479 24.2567 15.7819L24.3209 15.676C24.327 15.6675 24.3342 15.6606 24.3426 15.6552C24.3518 15.6491 24.3617 15.646 24.3724 15.646C24.3824 15.646 24.3934 15.6502 24.4056 15.6587C24.4186 15.6664 24.4331 15.6764 24.4492 15.6886C24.4652 15.7009 24.4835 15.7144 24.5042 15.729C24.5248 15.7435 24.5481 15.757 24.5741 15.7692C24.6008 15.7815 24.6309 15.7919 24.6645 15.8003C24.6981 15.808 24.7359 15.8119 24.7779 15.8119C24.8306 15.8119 24.8776 15.8046 24.9188 15.79C24.9601 15.7754 24.9948 15.755 25.0231 15.729C25.0521 15.7021 25.0743 15.6702 25.0895 15.6334C25.1048 15.5965 25.1125 15.5554 25.1125 15.5102C25.1125 15.4603 25.101 15.4196 25.0781 15.3881C25.0559 15.3559 25.0265 15.329 24.9899 15.3075C24.9532 15.286 24.9112 15.268 24.8638 15.2534C24.8165 15.238 24.7684 15.2227 24.7195 15.2073C24.6706 15.1912 24.6225 15.1728 24.5752 15.1521C24.5278 15.1313 24.4858 15.1044 24.4492 15.0715C24.4125 15.0384 24.3828 14.9973 24.3598 14.9482C24.3377 14.8983 24.3266 14.8369 24.3266 14.764C24.3266 14.7056 24.3377 14.6492 24.3598 14.5947C24.3828 14.5402 24.4156 14.4919 24.4583 14.4496C24.5019 14.4074 24.555 14.3736 24.6176 14.3483C24.6809 14.3229 24.7535 14.3103 24.8352 14.3103C24.9269 14.3103 25.0101 14.3249 25.085 14.354C25.1605 14.3832 25.227 14.4254 25.2843 14.4807L25.2304 14.5867Z" fill="#0CA49D"/>
<path d="M25.8569 15.9787H25.6347V14.3286H25.8569V15.9787Z" fill="#0CA49D"/>
<path d="M27.1486 15.3662L26.8908 14.6948C26.8832 14.6748 26.8752 14.6518 26.8668 14.6257C26.8584 14.5989 26.8504 14.5704 26.8427 14.5405C26.8267 14.6027 26.8103 14.6545 26.7935 14.696L26.5357 15.3662H27.1486ZM27.6114 15.9787H27.4396C27.4197 15.9787 27.4037 15.9737 27.3915 15.9638C27.3792 15.9538 27.3701 15.9411 27.364 15.9258L27.2105 15.5273H26.4739L26.3204 15.9258C26.3158 15.9396 26.307 15.9519 26.294 15.9626C26.2811 15.9734 26.265 15.9787 26.2459 15.9787H26.0741L26.7305 14.3286H26.955L27.6114 15.9787Z" fill="#0CA49D"/>
</svg>
